<svg xmlns="http://www.w3.org/2000/svg" xmlns:xlink="http://www.w3.org/1999/xlink" width="1920" zoomAndPan="magnify" viewBox="0 0 1440 809.999993" height="1080" preserveAspectRatio="xMidYMid meet" version="1.0"><defs><g/><clipPath id="15296424ae"><path d="M 57 86 L 438 86 L 438 431 L 57 431 Z M 57 86 " clip-rule="nonzero"/></clipPath><clipPath id="7385d9d4cf"><path d="M 491.851562 177.980469 L 298.894531 510.558594 L 3.269531 339.042969 L 196.226562 6.464844 Z M 491.851562 177.980469 " clip-rule="nonzero"/></clipPath><clipPath id="c532c384f0"><path d="M 134.0625 406.339844 L 63.632812 282.796875 C 55.125 267.871094 55.191406 249.546875 63.816406 234.6875 L 135.753906 110.691406 C 144.375 95.832031 160.25 86.675781 177.429688 86.65625 L 319.636719 86.484375 C 336.792969 86.460938 352.636719 95.65625 361.132812 110.558594 L 431.558594 234.097656 C 440.070312 249.023438 440 267.347656 431.378906 282.210938 L 359.4375 406.203125 C 350.816406 421.0625 334.941406 430.21875 317.761719 430.242188 L 175.554688 430.414062 C 158.402344 430.433594 142.558594 421.242188 134.0625 406.339844 Z M 134.0625 406.339844 " clip-rule="nonzero"/></clipPath><clipPath id="2acae6572a"><path d="M 0 0.441406 L 381 0.441406 L 381 344.601562 L 0 344.601562 Z M 0 0.441406 " clip-rule="nonzero"/></clipPath><clipPath id="2454021066"><path d="M 434.851562 91.980469 L 241.894531 424.558594 L -53.730469 253.042969 L 139.226562 -79.535156 Z M 434.851562 91.980469 " clip-rule="nonzero"/></clipPath><clipPath id="9eaf49c48a"><path d="M 77.0625 320.339844 L 6.632812 196.796875 C -1.875 181.871094 -1.808594 163.546875 6.816406 148.6875 L 78.753906 24.691406 C 87.375 9.832031 103.25 0.675781 120.429688 0.65625 L 262.636719 0.484375 C 279.792969 0.460938 295.636719 9.65625 304.132812 24.558594 L 374.558594 148.097656 C 383.070312 163.023438 383 181.347656 374.378906 196.210938 L 302.4375 320.203125 C 293.816406 335.0625 277.941406 344.21875 260.761719 344.242188 L 118.554688 344.414062 C 101.402344 344.433594 85.558594 335.242188 77.0625 320.339844 Z M 77.0625 320.339844 " clip-rule="nonzero"/></clipPath><clipPath id="310a79ef9e"><rect x="0" width="381" y="0" height="345"/></clipPath><clipPath id="23264bffbe"><path d="M 23 0.519531 L 495.359375 0.519531 L 495.359375 516.519531 L 23 516.519531 Z M 23 0.519531 " clip-rule="nonzero"/></clipPath><clipPath id="d4a33064da"><path d="M 0 0.519531 L 470 0.519531 L 470 516.519531 L 0 516.519531 Z M 0 0.519531 " clip-rule="nonzero"/></clipPath><clipPath id="4a5a8fd613"><rect x="0" width="496" y="0" height="517"/></clipPath><clipPath id="cc675fd7fb"><rect x="0" width="875" y="0" height="455"/></clipPath></defs><g transform="matrix(1, 0, 0, 1, 0, 155)"><g clip-path="url(#4a5a8fd613)"><g clip-path="url(#15296424ae)"><g clip-path="url(#7385d9d4cf)"><g clip-path="url(#c532c384f0)"><g transform="matrix(1, 0, 0, 1, 57, 86)"><g clip-path="url(#310a79ef9e)"><g clip-path="url(#2acae6572a)"><g clip-path="url(#2454021066)"><g clip-path="url(#9eaf49c48a)"><path fill="#ffffff" d="M 438.199219 86.207031 L 238.542969 430.332031 L -57.082031 258.816406 L 142.574219 -85.308594 Z M 438.199219 86.207031 " fill-opacity="1" fill-rule="nonzero"/></g></g></g></g></g></g></g></g><g clip-path="url(#23264bffbe)"><path stroke-linecap="butt" transform="matrix(-0.492624, 0.84908, -0.84908, -0.492624, 422.996937, 139.029009)" fill="none" stroke-linejoin="miter" d="M 0.00166726 16.999122 L 397.472873 17.000126 " stroke="#000000" stroke-width="34" stroke-opacity="1" stroke-miterlimit="4"/></g><g clip-path="url(#d4a33064da)"><path stroke-linecap="butt" transform="matrix(-0.492624, 0.84908, -0.84908, -0.492624, 294.987354, 60.407977)" fill="none" stroke-linejoin="miter" d="M 0.000707679 16.997594 L 397.47391 17.002039 " stroke="#000000" stroke-width="34" stroke-opacity="1" stroke-miterlimit="4"/></g></g></g><g transform="matrix(1, 0, 0, 1, 510, 180)"><g clip-path="url(#cc675fd7fb)"><g fill="#ffffff" fill-opacity="1"><g transform="translate(0.147637, 203.715775)"><g><path d="M 69.640625 0 L 40.78125 0 L 40.78125 -112.109375 L 3.8125 -112.109375 L 3.8125 -136.125 L 106.609375 -136.125 L 106.609375 -112.109375 L 69.640625 -112.109375 Z M 69.640625 0 "/></g></g></g><g fill="#ffffff" fill-opacity="1"><g transform="translate(110.573454, 203.715775)"><g><path d="M 46 -75.703125 L 55.3125 -75.703125 C 64.4375 -75.703125 71.171875 -77.222656 75.515625 -80.265625 C 79.859375 -83.304688 82.03125 -88.082031 82.03125 -94.59375 C 82.03125 -101.050781 79.8125 -105.644531 75.375 -108.375 C 70.9375 -111.101562 64.0625 -112.46875 54.75 -112.46875 L 46 -112.46875 Z M 46 -52.234375 L 46 0 L 17.125 0 L 17.125 -136.125 L 56.796875 -136.125 C 75.296875 -136.125 88.984375 -132.753906 97.859375 -126.015625 C 106.734375 -119.285156 111.171875 -109.0625 111.171875 -95.34375 C 111.171875 -87.332031 108.96875 -80.207031 104.5625 -73.96875 C 100.15625 -67.738281 93.914062 -62.851562 85.84375 -59.3125 C 106.332031 -28.707031 119.679688 -8.9375 125.890625 0 L 93.859375 0 L 61.359375 -52.234375 Z M 46 -52.234375 "/></g></g></g><g fill="#ffffff" fill-opacity="1"><g transform="translate(236.455163, 203.715775)"><g><path d="M 17.125 0 L 17.125 -136.125 L 46 -136.125 L 46 0 Z M 17.125 0 "/></g></g></g><g fill="#ffffff" fill-opacity="1"><g transform="translate(299.582233, 203.715775)"><g><path d="M 46 -72.0625 L 55.5 -72.0625 C 64.375 -72.0625 71.015625 -73.816406 75.421875 -77.328125 C 79.828125 -80.835938 82.03125 -85.941406 82.03125 -92.640625 C 82.03125 -99.410156 80.179688 -104.40625 76.484375 -107.625 C 72.796875 -110.851562 67.007812 -112.46875 59.125 -112.46875 L 46 -112.46875 Z M 111.171875 -93.671875 C 111.171875 -79.015625 106.59375 -67.804688 97.4375 -60.046875 C 88.28125 -52.296875 75.257812 -48.421875 58.375 -48.421875 L 46 -48.421875 L 46 0 L 17.125 0 L 17.125 -136.125 L 60.609375 -136.125 C 77.117188 -136.125 89.671875 -132.566406 98.265625 -125.453125 C 106.867188 -118.347656 111.171875 -107.753906 111.171875 -93.671875 Z M 111.171875 -93.671875 "/></g></g></g><g fill="#ffffff" fill-opacity="1"><g transform="translate(419.318804, 203.715775)"><g><path d="M 17.125 0 L 17.125 -136.125 L 46 -136.125 L 46 -23.84375 L 101.203125 -23.84375 L 101.203125 0 Z M 17.125 0 "/></g></g></g><g fill="#ffffff" fill-opacity="1"><g transform="translate(527.044509, 203.715775)"><g><path d="M 17.125 0 L 17.125 -136.125 L 46 -136.125 L 46 0 Z M 17.125 0 "/></g></g></g><g fill="#ffffff" fill-opacity="1"><g transform="translate(590.171602, 203.715775)"><g><path d="M 74.953125 -114.0625 C 64.085938 -114.0625 55.675781 -109.976562 49.71875 -101.8125 C 43.757812 -93.65625 40.78125 -82.28125 40.78125 -67.6875 C 40.78125 -37.332031 52.171875 -22.15625 74.953125 -22.15625 C 84.515625 -22.15625 96.09375 -24.546875 109.6875 -29.328125 L 109.6875 -5.125 C 98.507812 -0.46875 86.03125 1.859375 72.25 1.859375 C 52.445312 1.859375 37.300781 -4.144531 26.8125 -16.15625 C 16.320312 -28.164062 11.078125 -45.40625 11.078125 -67.875 C 11.078125 -82.03125 13.648438 -94.429688 18.796875 -105.078125 C 23.953125 -115.722656 31.359375 -123.882812 41.015625 -129.5625 C 50.671875 -135.238281 61.984375 -138.078125 74.953125 -138.078125 C 88.171875 -138.078125 101.453125 -134.878906 114.796875 -128.484375 L 105.5 -105.03125 C 100.40625 -107.445312 95.28125 -109.554688 90.125 -111.359375 C 84.976562 -113.160156 79.921875 -114.0625 74.953125 -114.0625 Z M 74.953125 -114.0625 "/></g></g></g><g fill="#ffffff" fill-opacity="1"><g transform="translate(711.677256, 203.715775)"><g><path d="M 95.53125 0 L 17.125 0 L 17.125 -136.125 L 95.53125 -136.125 L 95.53125 -112.46875 L 46 -112.46875 L 46 -82.59375 L 92.078125 -82.59375 L 92.078125 -58.9375 L 46 -58.9375 L 46 -23.84375 L 95.53125 -23.84375 Z M 95.53125 0 "/></g></g></g><g fill="#ffffff" fill-opacity="1"><g transform="translate(0.147637, 397.525677)"><g><path d="M 74.953125 -114.0625 C 64.085938 -114.0625 55.675781 -109.976562 49.71875 -101.8125 C 43.757812 -93.65625 40.78125 -82.28125 40.78125 -67.6875 C 40.78125 -37.332031 52.171875 -22.15625 74.953125 -22.15625 C 84.515625 -22.15625 96.09375 -24.546875 109.6875 -29.328125 L 109.6875 -5.125 C 98.507812 -0.46875 86.03125 1.859375 72.25 1.859375 C 52.445312 1.859375 37.300781 -4.144531 26.8125 -16.15625 C 16.320312 -28.164062 11.078125 -45.40625 11.078125 -67.875 C 11.078125 -82.03125 13.648438 -94.429688 18.796875 -105.078125 C 23.953125 -115.722656 31.359375 -123.882812 41.015625 -129.5625 C 50.671875 -135.238281 61.984375 -138.078125 74.953125 -138.078125 C 88.171875 -138.078125 101.453125 -134.878906 114.796875 -128.484375 L 105.5 -105.03125 C 100.40625 -107.445312 95.28125 -109.554688 90.125 -111.359375 C 84.976562 -113.160156 79.921875 -114.0625 74.953125 -114.0625 Z M 74.953125 -114.0625 "/></g></g></g><g fill="#ffffff" fill-opacity="1"><g transform="translate(121.65328, 397.525677)"><g><path d="M 46 -75.703125 L 55.3125 -75.703125 C 64.4375 -75.703125 71.171875 -77.222656 75.515625 -80.265625 C 79.859375 -83.304688 82.03125 -88.082031 82.03125 -94.59375 C 82.03125 -101.050781 79.8125 -105.644531 75.375 -108.375 C 70.9375 -111.101562 64.0625 -112.46875 54.75 -112.46875 L 46 -112.46875 Z M 46 -52.234375 L 46 0 L 17.125 0 L 17.125 -136.125 L 56.796875 -136.125 C 75.296875 -136.125 88.984375 -132.753906 97.859375 -126.015625 C 106.734375 -119.285156 111.171875 -109.0625 111.171875 -95.34375 C 111.171875 -87.332031 108.96875 -80.207031 104.5625 -73.96875 C 100.15625 -67.738281 93.914062 -62.851562 85.84375 -59.3125 C 106.332031 -28.707031 119.679688 -8.9375 125.890625 0 L 93.859375 0 L 61.359375 -52.234375 Z M 46 -52.234375 "/></g></g></g><g fill="#ffffff" fill-opacity="1"><g transform="translate(247.535, 397.525677)"><g><path d="M 95.53125 0 L 17.125 0 L 17.125 -136.125 L 95.53125 -136.125 L 95.53125 -112.46875 L 46 -112.46875 L 46 -82.59375 L 92.078125 -82.59375 L 92.078125 -58.9375 L 46 -58.9375 L 46 -23.84375 L 95.53125 -23.84375 Z M 95.53125 0 "/></g></g></g><g fill="#ffffff" fill-opacity="1"><g transform="translate(354.329603, 397.525677)"><g><path d="M 100.46875 0 L 90.59375 -32.40625 L 40.96875 -32.40625 L 31.09375 0 L 0 0 L 48.046875 -136.6875 L 83.328125 -136.6875 L 131.5625 0 Z M 83.703125 -56.609375 C 74.578125 -85.972656 69.441406 -102.578125 68.296875 -106.421875 C 67.148438 -110.273438 66.328125 -113.316406 65.828125 -115.546875 C 63.773438 -107.597656 57.910156 -87.953125 48.234375 -56.609375 Z M 83.703125 -56.609375 "/></g></g></g><g fill="#ffffff" fill-opacity="1"><g transform="translate(485.890896, 397.525677)"><g><path d="M 69.640625 0 L 40.78125 0 L 40.78125 -112.109375 L 3.8125 -112.109375 L 3.8125 -136.125 L 106.609375 -136.125 L 106.609375 -112.109375 L 69.640625 -112.109375 Z M 69.640625 0 "/></g></g></g><g fill="#ffffff" fill-opacity="1"><g transform="translate(596.316691, 397.525677)"><g><path d="M 140.6875 -68.25 C 140.6875 -45.71875 135.097656 -28.398438 123.921875 -16.296875 C 112.753906 -4.191406 96.742188 1.859375 75.890625 1.859375 C 55.023438 1.859375 39.003906 -4.191406 27.828125 -16.296875 C 16.660156 -28.398438 11.078125 -45.78125 11.078125 -68.4375 C 11.078125 -91.09375 16.675781 -108.394531 27.875 -120.34375 C 39.082031 -132.289062 55.144531 -138.265625 76.0625 -138.265625 C 96.988281 -138.265625 112.988281 -132.242188 124.0625 -120.203125 C 135.144531 -108.160156 140.6875 -90.84375 140.6875 -68.25 Z M 41.34375 -68.25 C 41.34375 -53.039062 44.226562 -41.585938 50 -33.890625 C 55.769531 -26.191406 64.398438 -22.34375 75.890625 -22.34375 C 98.910156 -22.34375 110.421875 -37.644531 110.421875 -68.25 C 110.421875 -98.914062 98.96875 -114.25 76.0625 -114.25 C 64.582031 -114.25 55.925781 -110.382812 50.09375 -102.65625 C 44.257812 -94.925781 41.34375 -83.457031 41.34375 -68.25 Z M 41.34375 -68.25 "/></g></g></g><g fill="#ffffff" fill-opacity="1"><g transform="translate(748.08238, 397.525677)"><g><path d="M 46 -75.703125 L 55.3125 -75.703125 C 64.4375 -75.703125 71.171875 -77.222656 75.515625 -80.265625 C 79.859375 -83.304688 82.03125 -88.082031 82.03125 -94.59375 C 82.03125 -101.050781 79.8125 -105.644531 75.375 -108.375 C 70.9375 -111.101562 64.0625 -112.46875 54.75 -112.46875 L 46 -112.46875 Z M 46 -52.234375 L 46 0 L 17.125 0 L 17.125 -136.125 L 56.796875 -136.125 C 75.296875 -136.125 88.984375 -132.753906 97.859375 -126.015625 C 106.734375 -119.285156 111.171875 -109.0625 111.171875 -95.34375 C 111.171875 -87.332031 108.96875 -80.207031 104.5625 -73.96875 C 100.15625 -67.738281 93.914062 -62.851562 85.84375 -59.3125 C 106.332031 -28.707031 119.679688 -8.9375 125.890625 0 L 93.859375 0 L 61.359375 -52.234375 Z M 46 -52.234375 "/></g></g></g></g></g></svg>